<svg width="35" height="35" viewBox="0 0 35 35" fill="none" xmlns="http://www.w3.org/2000/svg">
<g clip-path="url(#clip0)">
<path d="M17.4953 11.664C14.2819 11.664 11.6596 14.2863 11.6596 17.4997C11.6596 20.713 14.2819 23.3354 17.4953 23.3354C20.7087 23.3354 23.331 20.713 23.331 17.4997C23.331 14.2863 20.7087 11.664 17.4953 11.664ZM34.998 17.4997C34.998 15.0831 35.0199 12.6884 34.8842 10.2762C34.7485 7.47434 34.1093 4.9877 32.0605 2.93886C30.0073 0.885633 27.525 0.250841 24.7232 0.115127C22.3066 -0.0205873 19.9119 0.00130218 17.4997 0.00130218C15.0831 0.00130218 12.6884 -0.0205873 10.2762 0.115127C7.47434 0.250841 4.9877 0.890011 2.93886 2.93886C0.885633 4.99208 0.250841 7.47434 0.115127 10.2762C-0.0205873 12.6928 0.00130218 15.0875 0.00130218 17.4997C0.00130218 19.9119 -0.0205873 22.311 0.115127 24.7232C0.250841 27.525 0.890011 30.0116 2.93886 32.0605C4.99208 34.1137 7.47434 34.7485 10.2762 34.8842C12.6928 35.0199 15.0875 34.998 17.4997 34.998C19.9163 34.998 22.311 35.0199 24.7232 34.8842C27.525 34.7485 30.0116 34.1093 32.0605 32.0605C34.1137 30.0073 34.7485 27.525 34.8842 24.7232C35.0243 22.311 34.998 19.9163 34.998 17.4997ZM17.4953 26.4787C12.5264 26.4787 8.51627 22.4686 8.51627 17.4997C8.51627 12.5308 12.5264 8.52065 17.4953 8.52065C22.4642 8.52065 26.4743 12.5308 26.4743 17.4997C26.4743 22.4686 22.4642 26.4787 17.4953 26.4787ZM26.8421 10.2499C25.6819 10.2499 24.7451 9.31304 24.7451 8.15291C24.7451 6.99277 25.6819 6.0559 26.8421 6.0559C28.0022 6.0559 28.9391 6.99277 28.9391 8.15291C28.9394 8.42839 28.8854 8.70123 28.7801 8.9558C28.6749 9.21038 28.5204 9.44169 28.3256 9.63648C28.1308 9.83128 27.8995 9.98573 27.645 10.091C27.3904 10.1963 27.1175 10.2503 26.8421 10.2499Z" fill="white"/>
</g>
<defs>
<clipPath id="clip0">
<rect width="35" height="35" fill="white"/>
</clipPath>
</defs>
</svg>
