<svg width="35" height="35" viewBox="0 0 35 35" fill="none" xmlns="http://www.w3.org/2000/svg">
<path fill-rule="evenodd" clip-rule="evenodd" d="M17.5 35C27.165 35 35 27.165 35 17.5C35 7.83502 27.165 0 17.5 0C7.83502 0 0 7.83502 0 17.5C0 27.165 7.83502 35 17.5 35ZM19.357 8.12906C23.2143 7.41241 23.8395 7.29626 23.9549 7.29626C24.4786 7.25986 24.7799 7.56612 24.7799 8.08986C24.7849 22.3757 24.8216 22.8242 24.7244 23.2415C24.7159 23.2781 24.7063 23.3145 24.6956 23.36C24.4051 24.5966 23.4564 25.2916 22.1848 25.5269C21.0675 25.7302 20.1573 25.5793 19.3457 24.9668C18.2562 24.0604 18.2428 22.5575 19.2229 21.6104C19.8787 20.9919 20.6875 20.8614 21.9131 20.6636C22.1353 20.6277 22.3712 20.5896 22.6224 20.546C22.8959 20.4963 23.1344 20.4342 23.3353 20.2131C23.3621 20.1833 23.3856 20.1573 23.4063 20.1293C23.6107 19.8522 23.5353 19.3687 23.5353 12.8497C23.5353 12.3446 23.2842 12.2043 22.7605 12.2949C22.3866 12.3579 14.298 13.8546 14.298 13.8546C13.8335 13.9549 13.6865 14.0898 13.6865 14.6091C13.6865 24.1367 13.7271 24.6982 13.6157 25.2277C13.6033 25.2867 13.589 25.3453 13.5726 25.4159C13.3816 26.237 12.8704 26.8549 12.1961 27.1984C11.4312 27.6183 10.044 27.8012 9.30594 27.6662C7.33672 27.3014 6.64444 25.0502 7.98057 23.7595C8.70859 23.0738 9.71373 22.9008 11.1894 22.6467C11.2842 22.6304 11.3809 22.6137 11.4796 22.5966L11.4855 22.5955C11.7582 22.546 12.1088 22.4823 12.3082 22.2619C12.5964 21.9371 12.5101 17.4744 12.4436 14.0359C12.4039 11.9864 12.3713 10.3008 12.4293 10.0721C12.466 9.83774 12.5656 9.63889 12.753 9.48976C12.944 9.33175 13.2919 9.2412 13.3645 9.2412C15.9357 8.7647 17.8825 8.40301 19.357 8.12906Z" fill="white"/>
</svg>
