<svg width="40" height="40" viewBox="0 0 40 40" fill="none" xmlns="http://www.w3.org/2000/svg">
<path fill-rule="evenodd" clip-rule="evenodd" d="M20 40C31.0457 40 40 31.0457 40 20C40 8.9543 31.0457 0 20 0C8.9543 0 0 8.9543 0 20C0 31.0457 8.9543 40 20 40ZM22.1228 9.29035C26.5311 8.47133 27.2455 8.33859 27.3775 8.33859C27.976 8.29699 28.3204 8.647 28.3204 9.24556C28.326 25.5723 28.368 26.0848 28.2569 26.5617C28.2472 26.6036 28.2363 26.6452 28.224 26.6972C27.892 28.1104 26.8077 28.9048 25.3545 29.1736C24.0775 29.4059 23.0373 29.2335 22.1098 28.5334C20.8647 27.4976 20.8493 25.7801 21.9694 24.6976C22.719 23.9908 23.6433 23.8416 25.0439 23.6155C25.2979 23.5745 25.5675 23.531 25.8546 23.4812C26.1672 23.4244 26.4398 23.3533 26.6693 23.1007C26.7 23.0666 26.7269 23.037 26.7505 23.0049C26.9841 22.6882 26.8979 22.1357 26.8979 14.6854C26.8979 14.1081 26.6109 13.9478 26.0124 14.0513C25.5851 14.1233 16.3411 15.8338 16.3411 15.8338C15.8102 15.9484 15.6421 16.1026 15.6421 16.6961C15.6421 27.5848 15.6886 28.2265 15.5613 28.8317C15.5471 28.8991 15.5308 28.9661 15.512 29.0468C15.2937 29.9852 14.7095 30.6913 13.9388 31.0839C13.0647 31.5638 11.4792 31.7728 10.6358 31.6186C8.38526 31.2016 7.59409 28.6288 9.12109 27.1537C9.95312 26.3701 11.1019 26.1723 12.7884 25.882C12.8967 25.8633 13.0072 25.8443 13.12 25.8247L13.1267 25.8235C13.4384 25.7668 13.839 25.694 14.0669 25.4422C14.3964 25.071 14.2977 19.9707 14.2217 16.041C14.1764 13.6988 14.1391 11.7724 14.2053 11.511C14.2473 11.2431 14.3611 11.0159 14.5753 10.8454C14.7936 10.6649 15.1912 10.5614 15.2742 10.5614C18.2127 10.0168 20.4376 9.60343 22.1228 9.29035Z" fill="#BB6BD9"/>
</svg>
