<svg width="40" height="40" viewBox="0 0 40 40" fill="none" xmlns="http://www.w3.org/2000/svg">
<path fill-rule="evenodd" clip-rule="evenodd" d="M20 40C31.0457 40 40 31.0457 40 20C40 8.9543 31.0457 0 20 0C8.9543 0 0 8.9543 0 20C0 31.0457 8.9543 40 20 40ZM30 27.6665C30 28.9533 29.0033 29.9998 27.7778 29.9998H12.2222C10.9967 29.9998 10 28.9533 10 27.6665V14.8332C10 14.5238 10.1171 14.227 10.3254 14.0082C10.5338 13.7894 10.8164 13.6665 11.1111 13.6665H14.4444V12.4998C14.4444 9.28334 16.9367 6.6665 20 6.6665C23.0633 6.6665 25.5556 9.28334 25.5556 12.4998V13.6665H28.8889C29.1836 13.6665 29.4662 13.7894 29.6746 14.0082C29.8829 14.227 30 14.5238 30 14.8332V27.6665ZM20 8.99984C18.1622 8.99984 16.6667 10.5702 16.6667 12.4998V13.6665H23.3333V12.4998C23.3333 10.5702 21.8378 8.99984 20 8.99984ZM14.4444 15.9998H12.2222V27.6665H27.78L27.7778 15.9998H25.5556V18.3332H23.3333V15.9998H16.6667V18.3332H14.4444V15.9998Z" fill="#56CCF2"/>
</svg>
