<svg width="40" height="40" viewBox="0 0 40 40" fill="none" xmlns="http://www.w3.org/2000/svg">
<path fill-rule="evenodd" clip-rule="evenodd" d="M20 40C31.0457 40 40 31.0457 40 20C40 8.9543 31.0457 0 20 0C8.9543 0 0 8.9543 0 20C0 31.0457 8.9543 40 20 40ZM7.86127 19.5272C7.86782 19.4693 7.91556 19.4192 7.96907 19.4175C8.01748 19.4191 8.06508 19.4667 8.06508 19.5272L8.36479 21.9312L8.08372 24.2804C8.07174 24.346 8.02645 24.3901 7.97183 24.3901C7.91722 24.3901 7.86793 24.346 7.86127 24.2804L7.60285 21.9312L7.86127 19.5272ZM7.96907 19.4175C7.96999 19.4175 7.97091 19.4175 7.97183 19.4175H7.9665C7.96736 19.4175 7.96821 19.4175 7.96907 19.4175ZM6.85023 20.4476C6.86622 20.382 6.89952 20.3419 6.96745 20.3419L6.96612 20.3192C7.01674 20.3192 7.06603 20.3526 7.06603 20.4208L7.30047 21.9085L7.06603 23.3801C7.04738 23.4456 7.00209 23.4965 6.95014 23.4965C6.89952 23.4965 6.85023 23.4537 6.85023 23.3921L6.66641 21.9312L6.85023 20.4476ZM8.86565 19.0643C8.86565 19.0001 8.92959 18.9479 8.99885 18.9479L9.01351 18.9305C9.08011 18.9305 9.13206 18.9987 9.14938 19.0643L9.43044 21.9085L9.14938 24.6697C9.13206 24.7353 9.08277 24.8035 9.01351 24.8035C8.93092 24.8035 8.88163 24.7353 8.88163 24.6697L8.6312 21.9259L8.86565 19.0643ZM9.898 18.9813C9.91398 18.8984 9.98192 18.8302 10.0658 18.8302L10.1005 18.8502C10.1201 18.8501 10.1395 18.8538 10.1576 18.8613C10.1757 18.8688 10.1921 18.8798 10.2059 18.8938C10.2197 18.9078 10.2305 18.9244 10.2378 18.9426C10.2451 18.9609 10.2487 18.9804 10.2483 19.0001L10.5161 21.9259L10.2483 24.7527C10.2323 24.8503 10.1671 24.9186 10.0818 24.9186C10.0006 24.9186 9.9353 24.8503 9.91931 24.766L9.68354 21.9259L9.898 18.9813ZM11.3325 19.167C11.3418 19.1877 11.3468 19.2101 11.3473 19.2328L11.31 19.2168L11.5617 21.9406L11.31 24.8022C11.31 24.9052 11.2287 24.9788 11.1461 24.9788C11.1231 24.9791 11.1002 24.9748 11.0787 24.9662C11.0573 24.9575 11.0379 24.9446 11.0215 24.9283C11.0051 24.912 10.9921 24.8925 10.9834 24.8711C10.9746 24.8497 10.9701 24.8267 10.9703 24.8035L10.7452 21.9433L10.9876 19.2328C10.9907 19.1867 11.0114 19.1436 11.0454 19.1124C11.0794 19.0812 11.1241 19.0645 11.1701 19.0656C11.1927 19.0647 11.2153 19.0684 11.2365 19.0763C11.2577 19.0843 11.2771 19.0964 11.2936 19.1119C11.3101 19.1275 11.3233 19.1462 11.3325 19.167ZM12.107 17.3863C12.1436 17.349 12.193 17.3271 12.2451 17.3251L12.2225 17.2903C12.3237 17.2903 12.4129 17.376 12.4223 17.4937L12.6527 21.9259L12.4209 24.7848C12.4143 24.8864 12.325 24.9854 12.2211 24.9854C12.1092 24.9854 12.0213 24.9052 12.0213 24.8022L11.8135 21.9406L12.048 17.5258C12.0493 17.4735 12.0704 17.4236 12.107 17.3863ZM13.2865 16.271C13.2871 16.271 13.2876 16.271 13.2881 16.2709L13.2839 16.2707C13.277 16.27 13.2699 16.2696 13.2628 16.2696L13.2839 16.2707C13.2848 16.2708 13.2857 16.2709 13.2865 16.271ZM13.2865 16.271C13.2294 16.2738 13.1752 16.2972 13.1338 16.337C13.0921 16.3771 13.0665 16.4312 13.0617 16.489L12.8618 21.9245L13.0457 24.7674C13.0457 24.9012 13.1456 25.0002 13.2628 25.0002C13.3774 25.0002 13.4773 24.9012 13.4946 24.7674L13.7104 21.9245L13.4959 16.5037C13.4798 16.3792 13.3921 16.2836 13.2865 16.271ZM14.1127 16.0034C14.1286 15.8696 14.2272 15.7719 14.3631 15.7719L14.3604 15.7519C14.495 15.7519 14.6109 15.8696 14.6109 16.0034L14.8293 21.8897L14.6122 24.7018C14.6105 24.7678 14.5838 24.8306 14.5374 24.8774C14.4911 24.9241 14.4287 24.9513 14.3631 24.9533C14.2272 24.9533 14.1286 24.8356 14.1127 24.7018L13.9275 21.8897L14.1127 16.0034ZM15.724 15.7002C15.7372 15.7327 15.7436 15.7676 15.7431 15.8027L15.7618 15.7866L15.9429 21.8737L15.7618 24.6684C15.7618 24.8169 15.6445 24.9346 15.494 24.9346C15.3435 24.9346 15.2289 24.8169 15.2089 24.6684L15.0438 21.8737L15.2103 15.8027C15.2123 15.7323 15.2413 15.6653 15.2911 15.6158C15.341 15.5662 15.4079 15.5378 15.478 15.5365C15.513 15.5359 15.5477 15.5424 15.5801 15.5556C15.6125 15.5688 15.6419 15.5884 15.6667 15.6132C15.6914 15.6381 15.7109 15.6676 15.724 15.7002ZM16.2919 15.9365C16.2919 15.788 16.4251 15.6542 16.5756 15.6542L16.541 15.6341C16.7075 15.6341 16.8407 15.7719 16.8407 15.9351L17.0272 21.859L16.8607 24.6202C16.8618 24.6977 16.8325 24.7726 16.7792 24.8286C16.7259 24.8847 16.6528 24.9174 16.5756 24.9199C16.4251 24.9199 16.2919 24.8022 16.2919 24.6349L16.1254 21.875L16.2919 15.9365ZM17.5363 15.8439C17.5746 15.828 17.6158 15.8199 17.6573 15.8201L17.6773 15.8776C17.8424 15.8776 17.9796 16.0127 17.993 16.196L18.1422 21.9018L18.0076 24.6283C17.9943 24.8115 17.8584 24.9453 17.6919 24.9453C17.5108 24.9453 17.3776 24.8022 17.3776 24.6363L17.227 21.8764L17.3416 16.1371C17.3414 16.0955 17.3495 16.0542 17.3653 16.0156C17.3811 15.9771 17.4043 15.942 17.4337 15.9126C17.463 15.8831 17.4979 15.8597 17.5363 15.8439ZM18.8082 14.7766C18.8732 14.776 18.9372 14.7931 18.9933 14.8261L18.996 14.8515C19.0407 14.8801 19.0776 14.9194 19.1034 14.9659C19.1292 15.0123 19.1431 15.0645 19.1439 15.1177L19.2944 21.9071L19.1652 24.366L19.1479 24.6349C19.1485 24.6815 19.1398 24.7277 19.1225 24.7709C19.1051 24.8141 19.0793 24.8534 19.0466 24.8864C18.9828 24.9457 18.9003 24.9807 18.8135 24.9854C18.7123 24.9854 18.619 24.9386 18.5524 24.8704C18.5045 24.8196 18.4805 24.7366 18.4725 24.6697V24.6604L18.3446 21.9272L18.4592 15.1793V15.1124C18.4598 15.0542 18.4754 14.9973 18.5046 14.9471C18.5338 14.8969 18.5756 14.8552 18.6257 14.8261C18.675 14.794 18.7416 14.7766 18.8082 14.7766ZM20.0336 14.161C20.0622 14.173 20.0877 14.1914 20.1083 14.2147L20.1256 14.1438C20.1802 14.175 20.2258 14.2198 20.2581 14.274C20.2903 14.3282 20.308 14.3898 20.3094 14.4528L20.4759 21.859L20.3094 24.552C20.3116 24.6492 20.2751 24.7433 20.2082 24.8135C20.1412 24.8838 20.0492 24.9245 19.9524 24.9266C19.8556 24.9287 19.762 24.8921 19.692 24.8249C19.6221 24.7577 19.5816 24.6653 19.5795 24.5681L19.5102 23.2463L19.4263 21.8897L19.5781 14.5144V14.4836C19.5794 14.4317 19.592 14.3808 19.615 14.3343C19.638 14.2878 19.6709 14.247 19.7113 14.2147C19.7789 14.1666 19.8603 14.1421 19.9431 14.1451C19.9741 14.1435 20.005 14.149 20.0336 14.161ZM28.788 18.6161C29.169 18.4542 29.6046 18.3579 30.0522 18.3579L30.0695 18.4168C30.9373 18.4193 31.7686 18.7678 32.3806 19.3857C32.9926 20.0036 33.3352 20.8403 33.333 21.7118C33.3348 22.142 33.2515 22.5682 33.0879 22.9658C32.9244 23.3634 32.6838 23.7244 32.3802 24.0278C32.0765 24.3312 31.7159 24.5711 31.3193 24.7334C30.9226 24.8957 30.4978 24.9773 30.0695 24.9734H20.9755C20.8786 24.9625 20.7888 24.9176 20.7217 24.8466C20.6547 24.7756 20.6148 24.6831 20.6091 24.5854V14.1344C20.6238 13.9338 20.6757 13.8321 20.9262 13.7318C21.7614 13.404 22.6611 13.2758 23.5542 13.3574C24.4472 13.439 25.3092 13.7281 26.0718 14.2019C26.8344 14.6757 27.4768 15.3212 27.9482 16.0873C28.4197 16.8534 28.7072 17.7192 28.788 18.6161Z" fill="#F2994A"/>
</svg>
