<svg width="40" height="40" viewBox="0 0 40 40" fill="none" xmlns="http://www.w3.org/2000/svg">
<path d="M20.001 0C9.00055 0 0 9.00055 0 20.001C0 30.9995 9.00055 40 20.001 40C30.9995 40 40 30.9995 40 20.001C40 9.00055 31.0995 0 20.001 0ZM29.1997 28.8995C28.8014 29.498 28.1007 29.7002 27.4981 29.3018C22.7957 26.3991 16.8961 25.7985 9.8954 27.398C9.19874 27.6022 8.59817 27.1017 8.39798 26.4992C8.19579 25.7985 8.69626 25.2019 9.29883 24.9998C16.8961 23.2981 23.4983 24.0008 28.6973 27.2018C29.3979 27.5001 29.498 28.2989 29.1997 28.8995ZM31.602 23.4002C31.0995 24.0989 30.2007 24.3992 29.498 23.8987C24.0989 20.6036 15.9011 19.5986 9.60112 21.6005C8.80436 21.8027 7.89951 21.4003 7.70132 20.6036C7.49912 19.7988 7.90151 18.898 8.70026 18.6978C15.9992 16.4997 25.0018 17.6007 31.1996 21.4023C31.8002 21.7006 32.1005 22.6996 31.602 23.4002ZM31.8002 17.7969C25.4001 13.9993 14.7 13.5989 8.59817 15.5027C8.13414 15.6364 7.63643 15.5862 7.20845 15.3626C6.78047 15.1389 6.45512 14.7589 6.29998 14.3016C6.1639 13.837 6.2127 13.3378 6.43619 12.9083C6.65967 12.4789 7.04054 12.1525 7.49912 11.9974C14.5999 9.8974 26.301 10.2958 33.702 14.702C34.6009 15.2004 34.9012 16.4016 34.4007 17.3004C33.9002 18.0011 32.7011 18.2974 31.8002 17.7969Z" fill="#6FCF97"/>
</svg>
