<svg width="35" height="35" viewBox="0 0 35 35" fill="none" xmlns="http://www.w3.org/2000/svg">
<path d="M17.5009 0C7.87548 0 0 7.87548 0 17.5009C0 27.1245 7.87548 35 17.5009 35C27.1245 35 35 27.1245 35 17.5009C35 7.87548 27.2121 0 17.5009 0ZM25.5498 25.287C25.2012 25.8108 24.5881 25.9877 24.0609 25.6391C19.9462 23.0992 14.784 22.5737 8.65848 23.9733C8.0489 24.1519 7.5234 23.714 7.34823 23.1868C7.17131 22.5737 7.60923 22.0517 8.13648 21.8748C14.784 20.3859 20.561 21.0007 25.1101 23.8016C25.7232 24.0626 25.8108 24.7615 25.5498 25.287ZM27.6518 20.4752C27.2121 21.0865 26.4256 21.3493 25.8108 20.9114C21.0865 18.0281 13.9135 17.1488 8.40098 18.9005C7.70382 19.0774 6.91207 18.7253 6.73865 18.0281C6.56173 17.324 6.91382 16.5357 7.61273 16.3605C13.9993 14.4372 21.8765 15.4006 27.2997 18.727C27.8252 18.988 28.0879 19.8621 27.6518 20.4752ZM27.8252 15.5723C22.2251 12.2494 12.8625 11.8991 7.5234 13.5649C7.11737 13.6819 6.68188 13.638 6.3074 13.4422C5.93291 13.2465 5.64823 12.914 5.51249 12.5139C5.39341 12.1074 5.43611 11.6706 5.63166 11.2948C5.82721 10.919 6.16047 10.6334 6.56173 10.4977C12.7749 8.66023 23.0134 9.00881 29.4893 12.8642C30.2758 13.3004 30.5385 14.3514 30.1006 15.1379C29.6627 15.751 28.6134 16.0102 27.8252 15.5723Z" fill="white"/>
</svg>
